<svg xmlns="http://www.w3.org/2000/svg" xmlns:xlink="http://www.w3.org/1999/xlink" viewBox="260 615 985 250" preserveAspectRatio="xMidYMid meet" version="1.0"><defs><g/></defs><g fill="#38b6ff" fill-opacity="1"><g transform="translate(273.984385, 793.06064)"><g><path d="M 6.609375 -70.421875 C 6.609375 -84.296875 9.609375 -96.664062 15.609375 -107.53125 C 21.609375 -118.40625 29.976562 -126.878906 40.71875 -132.953125 C 51.457031 -139.023438 63.628906 -142.0625 77.234375 -142.0625 C 93.898438 -142.0625 108.171875 -137.65625 120.046875 -128.84375 C 131.921875 -120.039062 139.859375 -108.039062 143.859375 -92.84375 L 106.234375 -92.84375 C 103.441406 -98.707031 99.476562 -103.171875 94.34375 -106.234375 C 89.207031 -109.304688 83.367188 -110.84375 76.828125 -110.84375 C 66.296875 -110.84375 57.757812 -107.171875 51.21875 -99.828125 C 44.6875 -92.492188 41.421875 -82.691406 41.421875 -70.421875 C 41.421875 -58.148438 44.6875 -48.347656 51.21875 -41.015625 C 57.757812 -33.679688 66.296875 -30.015625 76.828125 -30.015625 C 83.367188 -30.015625 89.207031 -31.546875 94.34375 -34.609375 C 99.476562 -37.679688 103.441406 -42.148438 106.234375 -48.015625 L 143.859375 -48.015625 C 139.859375 -32.804688 131.921875 -20.832031 120.046875 -12.09375 C 108.171875 -3.363281 93.898438 1 77.234375 1 C 63.628906 1 51.457031 -2.03125 40.71875 -8.09375 C 29.976562 -14.164062 21.609375 -22.601562 15.609375 -33.40625 C 9.609375 -44.21875 6.609375 -56.554688 6.609375 -70.421875 Z M 6.609375 -70.421875 "/></g></g></g><g fill="#38b6ff" fill-opacity="1"><g transform="translate(426.448872, 793.06064)"><g><path d="M 63.21875 1.59375 C 52.28125 1.59375 42.441406 -0.738281 33.703125 -5.40625 C 24.972656 -10.070312 18.109375 -16.738281 13.109375 -25.40625 C 8.109375 -34.082031 5.609375 -44.222656 5.609375 -55.828125 C 5.609375 -67.296875 8.140625 -77.394531 13.203125 -86.125 C 18.273438 -94.863281 25.210938 -101.566406 34.015625 -106.234375 C 42.816406 -110.910156 52.6875 -113.25 63.625 -113.25 C 74.5625 -113.25 84.429688 -110.910156 93.234375 -106.234375 C 102.035156 -101.566406 108.96875 -94.863281 114.03125 -86.125 C 119.101562 -77.394531 121.640625 -67.296875 121.640625 -55.828125 C 121.640625 -44.347656 119.070312 -34.238281 113.9375 -25.5 C 108.800781 -16.769531 101.796875 -10.070312 92.921875 -5.40625 C 84.054688 -0.738281 74.15625 1.59375 63.21875 1.59375 Z M 63.21875 -28.015625 C 69.757812 -28.015625 75.328125 -30.414062 79.921875 -35.21875 C 84.523438 -40.019531 86.828125 -46.890625 86.828125 -55.828125 C 86.828125 -64.765625 84.59375 -71.628906 80.125 -76.421875 C 75.65625 -81.222656 70.15625 -83.625 63.625 -83.625 C 56.957031 -83.625 51.421875 -81.253906 47.015625 -76.515625 C 42.617188 -71.785156 40.421875 -64.890625 40.421875 -55.828125 C 40.421875 -46.890625 42.585938 -40.019531 46.921875 -35.21875 C 51.253906 -30.414062 56.6875 -28.015625 63.21875 -28.015625 Z M 63.21875 -28.015625 "/></g></g></g><g fill="#38b6ff" fill-opacity="1"><g transform="translate(553.902773, 793.06064)"><g><path d="M 54.828125 -113.25 C 62.691406 -113.25 69.59375 -111.644531 75.53125 -108.4375 C 81.46875 -105.238281 86.035156 -101.039062 89.234375 -95.84375 L 89.234375 -111.640625 L 123.453125 -111.640625 L 123.453125 -0.203125 C 123.453125 10.066406 121.414062 19.367188 117.34375 27.703125 C 113.28125 36.046875 107.078125 42.679688 98.734375 47.609375 C 90.398438 52.546875 80.03125 55.015625 67.625 55.015625 C 51.082031 55.015625 37.675781 51.113281 27.40625 43.3125 C 17.132812 35.507812 11.265625 24.941406 9.796875 11.609375 L 43.609375 11.609375 C 44.679688 15.867188 47.21875 19.234375 51.21875 21.703125 C 55.21875 24.171875 60.15625 25.40625 66.03125 25.40625 C 73.09375 25.40625 78.722656 23.367188 82.921875 19.296875 C 87.128906 15.234375 89.234375 8.734375 89.234375 -0.203125 L 89.234375 -16 C 85.898438 -10.800781 81.296875 -6.566406 75.421875 -3.296875 C 69.554688 -0.0351562 62.691406 1.59375 54.828125 1.59375 C 45.617188 1.59375 37.28125 -0.769531 29.8125 -5.5 C 22.34375 -10.238281 16.441406 -16.972656 12.109375 -25.703125 C 7.773438 -34.441406 5.609375 -44.546875 5.609375 -56.015625 C 5.609375 -67.492188 7.773438 -77.566406 12.109375 -86.234375 C 16.441406 -94.898438 22.34375 -101.566406 29.8125 -106.234375 C 37.28125 -110.910156 45.617188 -113.25 54.828125 -113.25 Z M 89.234375 -55.828125 C 89.234375 -64.359375 86.863281 -71.09375 82.125 -76.03125 C 77.394531 -80.96875 71.628906 -83.4375 64.828125 -83.4375 C 58.023438 -83.4375 52.253906 -81 47.515625 -76.125 C 42.785156 -71.257812 40.421875 -64.554688 40.421875 -56.015625 C 40.421875 -47.484375 42.785156 -40.71875 47.515625 -35.71875 C 52.253906 -30.71875 58.023438 -28.21875 64.828125 -28.21875 C 71.628906 -28.21875 77.394531 -30.679688 82.125 -35.609375 C 86.863281 -40.546875 89.234375 -47.285156 89.234375 -55.828125 Z M 89.234375 -55.828125 "/></g></g></g><g fill="#000000" fill-opacity="1"><g transform="translate(689.765599, 793.06064)"><g><path d="M 80.4375 -112.84375 C 93.5 -112.84375 103.929688 -108.609375 111.734375 -100.140625 C 119.546875 -91.671875 123.453125 -80.03125 123.453125 -65.21875 L 123.453125 0 L 89.4375 0 L 89.4375 -60.625 C 89.4375 -68.09375 87.5 -73.894531 83.625 -78.03125 C 79.757812 -82.164062 74.5625 -84.234375 68.03125 -84.234375 C 61.488281 -84.234375 56.285156 -82.164062 52.421875 -78.03125 C 48.554688 -73.894531 46.625 -68.09375 46.625 -60.625 L 46.625 0 L 12.40625 0 L 12.40625 -111.640625 L 46.625 -111.640625 L 46.625 -96.84375 C 50.082031 -101.769531 54.742188 -105.664062 60.609375 -108.53125 C 66.484375 -111.40625 73.09375 -112.84375 80.4375 -112.84375 Z M 80.4375 -112.84375 "/></g></g></g><g fill="#000000" fill-opacity="1"><g transform="translate(824.622637, 793.06064)"><g><path d="M 5.609375 -56.015625 C 5.609375 -67.492188 7.773438 -77.566406 12.109375 -86.234375 C 16.441406 -94.898438 22.34375 -101.566406 29.8125 -106.234375 C 37.28125 -110.910156 45.617188 -113.25 54.828125 -113.25 C 62.691406 -113.25 69.59375 -111.644531 75.53125 -108.4375 C 81.46875 -105.238281 86.035156 -101.039062 89.234375 -95.84375 L 89.234375 -111.640625 L 123.453125 -111.640625 L 123.453125 0 L 89.234375 0 L 89.234375 -15.8125 C 85.898438 -10.601562 81.265625 -6.398438 75.328125 -3.203125 C 69.390625 -0.00390625 62.488281 1.59375 54.625 1.59375 C 45.550781 1.59375 37.28125 -0.769531 29.8125 -5.5 C 22.34375 -10.238281 16.441406 -16.972656 12.109375 -25.703125 C 7.773438 -34.441406 5.609375 -44.546875 5.609375 -56.015625 Z M 89.234375 -55.828125 C 89.234375 -64.359375 86.863281 -71.09375 82.125 -76.03125 C 77.394531 -80.96875 71.628906 -83.4375 64.828125 -83.4375 C 58.023438 -83.4375 52.253906 -81 47.515625 -76.125 C 42.785156 -71.257812 40.421875 -64.554688 40.421875 -56.015625 C 40.421875 -47.484375 42.785156 -40.71875 47.515625 -35.71875 C 52.253906 -30.71875 58.023438 -28.21875 64.828125 -28.21875 C 71.628906 -28.21875 77.394531 -30.679688 82.125 -35.609375 C 86.863281 -40.546875 89.234375 -47.285156 89.234375 -55.828125 Z M 89.234375 -55.828125 "/></g></g></g><g fill="#000000" fill-opacity="1"><g transform="translate(960.480146, 793.06064)"><g><path d="M 74.625 -29.015625 L 74.625 0 L 57.21875 0 C 44.8125 0 35.140625 -3.03125 28.203125 -9.09375 C 21.273438 -15.164062 17.8125 -25.070312 17.8125 -38.8125 L 17.8125 -83.234375 L 4.203125 -83.234375 L 4.203125 -111.640625 L 17.8125 -111.640625 L 17.8125 -138.859375 L 52.015625 -138.859375 L 52.015625 -111.640625 L 74.421875 -111.640625 L 74.421875 -83.234375 L 52.015625 -83.234375 L 52.015625 -38.421875 C 52.015625 -35.078125 52.816406 -32.671875 54.421875 -31.203125 C 56.023438 -29.742188 58.691406 -29.015625 62.421875 -29.015625 Z M 74.625 -29.015625 "/></g></g></g><g fill="#000000" fill-opacity="1"><g transform="translate(1041.714514, 793.06064)"><g><path d="M 29.609375 -123.25 C 23.609375 -123.25 18.707031 -125.015625 14.90625 -128.546875 C 11.101562 -132.085938 9.203125 -136.457031 9.203125 -141.65625 C 9.203125 -146.988281 11.101562 -151.421875 14.90625 -154.953125 C 18.707031 -158.492188 23.609375 -160.265625 29.609375 -160.265625 C 35.484375 -160.265625 40.316406 -158.492188 44.109375 -154.953125 C 47.910156 -151.421875 49.8125 -146.988281 49.8125 -141.65625 C 49.8125 -136.457031 47.910156 -132.085938 44.109375 -128.546875 C 40.316406 -125.015625 35.484375 -123.25 29.609375 -123.25 Z M 46.625 -111.640625 L 46.625 0 L 12.40625 0 L 12.40625 -111.640625 Z M 46.625 -111.640625 "/></g></g></g><g fill="#000000" fill-opacity="1"><g transform="translate(1100.739472, 793.06064)"><g><path d="M 62.625 -32.015625 L 86.828125 -111.640625 L 123.25 -111.640625 L 83.625 0 L 41.421875 0 L 1.796875 -111.640625 L 38.421875 -111.640625 Z M 62.625 -32.015625 "/></g></g></g></svg>